REM DIRINDEX 1\4,1\2\5,1\2\6,1\3\7,1\3\8
REM DIRNAME folder01,folder02,folder03,folder04,folder05,folder06,folder07,folder08
TITLE ""
FILE "038_Day19_Check3_Sentences.mp3" MP3
  TRACK 01 AUDIO
    TITLE "0:"
    INDEX 01 00:00:00
  TRACK 02 AUDIO
    TITLE "4:cjc124_1224"
    INDEX 01 00:00:25
  TRACK 03 AUDIO
    TITLE "0:"
    INDEX 01 00:01:54
  TRACK 04 AUDIO
    TITLE "7:cjc124_1225"
    INDEX 01 00:02:24
  TRACK 05 AUDIO
    TITLE "0:"
    INDEX 01 00:05:01
  TRACK 06 AUDIO
    TITLE "8:cjc124_1226"
    INDEX 01 00:05:18
  TRACK 07 AUDIO
    TITLE "0:"
    INDEX 01 00:08:54
  TRACK 08 AUDIO
    TITLE "7:cjc124_1227"
    INDEX 01 00:09:18
  TRACK 09 AUDIO
    TITLE "0:"
    INDEX 01 00:12:03
  TRACK 10 AUDIO
    TITLE "8:cjc124_1228"
    INDEX 01 00:12:20
  TRACK 11 AUDIO
    TITLE "0:"
    INDEX 01 00:15:03
  TRACK 12 AUDIO
    TITLE "7:cjc124_1229"
    INDEX 01 00:15:46
  TRACK 13 AUDIO
    TITLE "0:"
    INDEX 01 00:18:25
  TRACK 14 AUDIO
    TITLE "8:cjc124_1230"
    INDEX 01 00:18:41
  TRACK 15 AUDIO
    TITLE "0:"
    INDEX 01 00:21:43
  TRACK 16 AUDIO
    TITLE "7:cjc124_1231"
    INDEX 01 00:22:05
  TRACK 17 AUDIO
    TITLE "0:"
    INDEX 01 00:24:06
  TRACK 18 AUDIO
    TITLE "8:cjc124_1232"
    INDEX 01 00:24:25
  TRACK 19 AUDIO
    TITLE "0:"
    INDEX 01 00:26:34
  TRACK 20 AUDIO
    TITLE "7:cjc124_1233"
    INDEX 01 00:26:71
  TRACK 21 AUDIO
    TITLE "0:"
    INDEX 01 00:29:21
  TRACK 22 AUDIO
    TITLE "8:cjc124_1234"
    INDEX 01 00:29:38
  TRACK 23 AUDIO
    TITLE "0:"
    INDEX 01 00:32:25
  TRACK 24 AUDIO
    TITLE "7:cjc124_1235"
    INDEX 01 00:32:60
  TRACK 25 AUDIO
    TITLE "0:"
    INDEX 01 00:35:33
  TRACK 26 AUDIO
    TITLE "8:cjc124_1236"
    INDEX 01 00:35:53
  TRACK 27 AUDIO
    TITLE "0:"
    INDEX 01 00:38:22
  TRACK 28 AUDIO
    TITLE "7:cjc124_1237"
    INDEX 01 00:38:59
  TRACK 29 AUDIO
    TITLE "0:"
    INDEX 01 00:41:06
  TRACK 30 AUDIO
    TITLE "8:cjc124_1238"
    INDEX 01 00:41:22
  TRACK 31 AUDIO
    TITLE "0:"
    INDEX 01 00:43:42
  TRACK 32 AUDIO
    TITLE "7:cjc124_1239"
    INDEX 01 00:44:05
  TRACK 33 AUDIO
    TITLE "0:"
    INDEX 01 00:46:37
  TRACK 34 AUDIO
    TITLE "8:cjc124_1240"
    INDEX 01 00:46:54
  TRACK 35 AUDIO
    TITLE "0:"
    INDEX 01 00:49:16
  TRACK 36 AUDIO
    TITLE "7:cjc124_1241"
    INDEX 01 00:49:51
  TRACK 37 AUDIO
    TITLE "0:"
    INDEX 01 00:52:34
  TRACK 38 AUDIO
    TITLE "8:cjc124_1242"
    INDEX 01 00:52:53
  TRACK 39 AUDIO
    TITLE "0:"
    INDEX 01 00:54:64
  TRACK 40 AUDIO
    TITLE "7:cjc124_1243"
    INDEX 01 00:55:30
  TRACK 41 AUDIO
    TITLE "0:"
    INDEX 01 00:57:72
  TRACK 42 AUDIO
    TITLE "8:cjc124_1244"
    INDEX 01 00:58:18
  TRACK 43 AUDIO
    TITLE "0:"
    INDEX 01 01:01:03
  TRACK 44 AUDIO
    TITLE "7:cjc124_1245"
    INDEX 01 01:01:48
  TRACK 45 AUDIO
    TITLE "0:"
    INDEX 01 01:03:31
  TRACK 46 AUDIO
    TITLE "8:cjc124_1246"
    INDEX 01 01:03:49
  TRACK 47 AUDIO
    TITLE "0:"
    INDEX 01 01:05:40
  TRACK 48 AUDIO
    TITLE "7:cjc124_1247"
    INDEX 01 01:06:02
  TRACK 49 AUDIO
    TITLE "0:"
    INDEX 01 01:08:13
  TRACK 50 AUDIO
    TITLE "8:cjc124_1248"
    INDEX 01 01:08:40
  TRACK 51 AUDIO
    TITLE "0:"
    INDEX 01 01:11:09
  TRACK 52 AUDIO
    TITLE "7:cjc124_1249"
    INDEX 01 01:11:49
  TRACK 53 AUDIO
    TITLE "0:"
    INDEX 01 01:15:09
  TRACK 54 AUDIO
    TITLE "8:cjc124_1250"
    INDEX 01 01:15:23
  TRACK 55 AUDIO
    TITLE "0:"
    INDEX 01 01:18:21
  TRACK 56 AUDIO
    TITLE "7:cjc124_1251"
    INDEX 01 01:18:58
  TRACK 57 AUDIO
    TITLE "0:"
    INDEX 01 01:21:31
  TRACK 58 AUDIO
    TITLE "8:cjc124_1252"
    INDEX 01 01:21:49
  TRACK 59 AUDIO
    TITLE "0:"
    INDEX 01 01:25:09
  TRACK 60 AUDIO
    TITLE "7:cjc124_1253"
    INDEX 01 01:25:49
  TRACK 61 AUDIO
    TITLE "0:"
    INDEX 01 01:27:55
  TRACK 62 AUDIO
    TITLE "8:cjc124_1254"
    INDEX 01 01:27:71
  TRACK 63 AUDIO
    TITLE "0:"
    INDEX 01 01:29:43
  TRACK 64 AUDIO
    TITLE "7:cjc124_1255"
    INDEX 01 01:30:07
  TRACK 65 AUDIO
    TITLE "0:"
    INDEX 01 01:32:51
  TRACK 66 AUDIO
    TITLE "8:cjc124_1256"
    INDEX 01 01:32:66
  TRACK 67 AUDIO
    TITLE "0:"
    INDEX 01 01:35:16
